<svg width="66" height="65" viewBox="0 0 66 65" fill="none" xmlns="http://www.w3.org/2000/svg">
<path fill-rule="evenodd" clip-rule="evenodd" d="M43.6128 30.9899L46.4749 28.1281C46.644 28.1414 46.8146 28.1479 46.9861 28.1479C48.692 28.1479 50.2957 27.4838 51.5019 26.2781L54.2273 23.5528C56.7171 21.0626 56.7171 17.012 54.2273 14.5221L41.5737 1.87046C40.3675 0.664389 38.7638 -0.000366211 37.058 -0.000366211C35.3521 -0.000366211 33.7484 0.664389 32.5423 1.87007L29.8168 4.5952C28.4428 5.96884 27.8271 7.81855 27.9695 9.61859L10.6174 26.9685C10.4483 26.9554 10.2778 26.9488 10.1063 26.9488C8.40057 26.9488 6.7967 27.6127 5.59056 28.8188L2.86517 31.5442C0.375151 34.0338 0.375216 38.0846 2.86517 40.5746L15.5187 53.2265C16.7248 54.4326 18.3285 55.0968 20.0344 55.0968C21.7403 55.0968 23.344 54.4326 24.5501 53.2265L27.2756 50.5015C28.4817 49.2954 29.1461 47.6916 29.1461 45.9864C29.1461 45.8148 29.1393 45.6441 29.126 45.4754L31.9883 42.613L52.5069 63.1297C53.7131 64.3359 55.3168 64.9996 57.0227 64.9996C58.7285 64.9996 60.3323 64.3359 61.5385 63.1297L64.1315 60.5371C66.6215 58.0469 66.6213 53.9963 64.1315 51.5061L43.6128 30.9899ZM28.7033 39.244L23.5484 44.3984L23.9482 44.7982C24.6045 45.4543 24.6045 46.5181 23.9482 47.1745L21.2228 49.8995C20.8947 50.2277 20.4645 50.3915 20.0344 50.3915C19.6044 50.3915 19.1743 50.2277 18.8461 49.8995L6.19265 37.2474C5.53628 36.5913 5.53628 35.527 6.19265 34.871L8.91797 32.1456C9.24622 31.8178 9.67626 31.6537 10.1064 31.6537C10.5364 31.6537 10.9666 31.8178 11.2948 32.1456L11.6946 32.5456L33.5443 10.6985L33.1443 10.299C32.4879 9.64245 32.4879 8.5784 33.1443 7.92222L35.8698 5.19729C36.1978 4.86937 36.628 4.70524 37.058 4.70524C37.4881 4.70524 37.9183 4.86937 38.2464 5.19729L50.9 17.8495C51.5563 18.5055 51.5563 19.5694 50.9 20.2259L48.1746 22.9509C47.8464 23.279 47.4162 23.4431 46.9862 23.4431C46.5561 23.4431 46.126 23.279 45.7979 22.9509L45.398 22.551L40.243 27.7057L36.7828 31.165L32.1636 35.7838L28.7033 39.244ZM60.8041 57.2099L58.2111 59.8026C57.8829 60.1308 57.4528 60.2945 57.0228 60.2945C56.5926 60.2945 56.1625 60.1308 55.8344 59.8026L35.3157 39.2863L40.2853 34.3167L60.8041 54.8335C61.4603 55.4897 61.4603 56.5537 60.8041 57.2099Z" fill="#3172B9"/>
</svg>
